<svg xmlns="http://www.w3.org/2000/svg" version="1.1" xmlns:xlink="http://www.w3.org/1999/xlink" width="512" height="512"><svg id="SvgjsSvg1003" data-name="レイヤー 2" xmlns="http://www.w3.org/2000/svg" viewBox="0 0 512 512">
  <defs>
    <style>
      .cls-1 {
        fill: #fff;
      }
    </style>
  </defs>
  <g id="SvgjsG1002" data-name="レイヤー 1">
    <g>
      <rect class="cls-1" width="512" height="512"></rect>
      <g>
        <path d="M87.55,160.9H16l9.51-75.63h231.4l-9.51,75.63h-71.55l-32.6,265.82H54.95l32.6-265.82Z"></path>
        <path d="M397.28,155.47c-22.64,0-36.23,9.06-36.23,24,0,16.31,16.76,24.91,52.53,36.68,47.55,15.85,80.61,41.66,80.61,88.76,0,78.79-61.13,127.7-139.03,127.7-45.28,0-93.29-16.76-116.38-38.95l42.12-74.72c18.57,15.39,51.17,31.24,75.17,31.24,25.36,0,40.76-11.32,40.76-28.98,0-18.57-11.32-24-51.63-35.78-53.44-15.85-83.78-43.47-83.78-94.64,0-67.02,57.51-111.4,130.88-111.4,33.51,0,79.7,12.68,103.7,35.33l-42.57,66.57c-14.95-15.85-36.68-25.81-56.15-25.81Z"></path>
      </g>
    </g>
  </g>
</svg><style>@media (prefers-color-scheme: light) { :root { filter: none; } }
@media (prefers-color-scheme: dark) { :root { filter: none; } }
</style></svg>