<?xml version="1.0" encoding="UTF-8"?>
<svg id="_レイヤー_2" data-name="レイヤー 2" xmlns="http://www.w3.org/2000/svg" viewBox="0 0 50.88 37.44">
  <g id="_レイヤー_1-2" data-name="レイヤー 1">
    <g>
      <path d="M7.58,8.64H0L1.01.62h24.53l-1.01,8.02h-7.58l-3.46,28.18H4.13l3.46-28.18Z"/>
      <path d="M40.42,8.06c-2.4,0-3.84.96-3.84,2.54,0,1.73,1.78,2.64,5.57,3.89,5.04,1.68,8.54,4.42,8.54,9.41,0,8.35-6.48,13.54-14.74,13.54-4.8,0-9.89-1.78-12.34-4.13l4.46-7.92c1.97,1.63,5.42,3.31,7.97,3.31,2.69,0,4.32-1.2,4.32-3.07,0-1.97-1.2-2.54-5.47-3.79-5.66-1.68-8.88-4.61-8.88-10.03,0-7.1,6.1-11.81,13.87-11.81,3.55,0,8.45,1.34,10.99,3.74l-4.51,7.06c-1.58-1.68-3.89-2.74-5.95-2.74Z"/>
    </g>
  </g>
</svg>