<?xml version="1.0" encoding="UTF-8"?>
<svg id="_レイヤー_2" data-name="レイヤー 2" xmlns="http://www.w3.org/2000/svg" viewBox="0 0 310.94 40.47">
  <defs>
    <style>
      .cls-1 {
        fill: #fff;
      }
    </style>
  </defs>
  <g id="_レイヤー_1-2" data-name="レイヤー 1">
    <g>
      <path class="cls-1" d="M7.58,11.67H0L1.01,3.65h24.53l-1.01,8.02h-7.58l-3.46,28.18H4.13l3.46-28.18Z"/>
      <path class="cls-1" d="M25.87,15.31h8.83l-.53,4.22h.05c2.35-3.22,6-4.7,8.93-4.7.48,0,.91.05,1.44.14l-1.1,8.59-.14.05c-.82-.48-2.21-.72-3.65-.72-3.26,0-5.95,1.92-6.43,5.71l-1.39,11.23h-9.02l3.02-24.53Z"/>
      <path class="cls-1" d="M45.84,29.57l1.82-14.26h9.02l-1.58,12.67c-.38,2.93.72,4.8,3.65,4.8,2.54,0,3.79-1.34,4.18-4.37l1.63-13.11h9.02l-1.87,14.98c-.77,6.29-5.23,10.03-13.87,10.03-8.11,0-12.91-3.7-12-10.75Z"/>
      <path class="cls-1" d="M90.48,22.47c-2.93,0-5.76,1.78-5.76,5.62,0,2.69,1.63,4.85,4.94,4.85,1.44,0,3.26-.48,5.04-1.63h.1l-1.06,7.78c-2.21.86-4.66,1.25-6.82,1.25-7.39,0-11.47-5.42-11.47-11.71,0-8.26,6.05-13.78,13.63-13.78,2.78,0,5.86.72,7.54,1.63l-1.01,7.63-.1.05c-1.34-1.01-3.22-1.68-5.04-1.68Z"/>
      <path class="cls-1" d="M111.89,0l-3.02,24.58h.05l8.98-9.27h10.9l-11.76,11.38,9.98,13.15h-11.23l-7.44-10.08-.1.05-1.25,10.03h-9.02L102.86,0h9.02Z"/>
      <path class="cls-1" d="M146.11,11.09c-2.4,0-3.84.96-3.84,2.54,0,1.73,1.78,2.64,5.57,3.89,5.04,1.68,8.54,4.42,8.54,9.41,0,8.35-6.48,13.54-14.74,13.54-4.8,0-9.89-1.78-12.34-4.13l4.46-7.92c1.97,1.63,5.42,3.31,7.97,3.31,2.69,0,4.32-1.2,4.32-3.07,0-1.97-1.2-2.54-5.47-3.79-5.66-1.68-8.88-4.61-8.88-10.03,0-7.1,6.1-11.81,13.87-11.81,3.55,0,8.45,1.34,10.99,3.74l-4.51,7.06c-1.58-1.68-3.89-2.74-5.95-2.74Z"/>
      <path class="cls-1" d="M172.89,8.59l-.82,6.72h4.94l-.91,7.3h-4.94l-2.11,17.23h-9.02l2.11-17.23h-3.22l.91-7.3h3.22l.82-6.72h9.02Z"/>
      <path class="cls-1" d="M207.02,15.31l-3.02,24.53h-8.69l.34-2.69h-.05c-2.06,2.06-4.75,3.17-8.11,3.17-6.19,0-10.37-4.46-10.37-11.76s4.7-13.73,12.87-13.73c3.31,0,5.95,1.34,7.58,3.41h.05l.38-2.93h9.02ZM191.95,22.23c-3.41,0-5.62,2.5-5.62,5.76,0,2.93,2.02,4.9,4.8,4.9,3.79,0,5.81-2.35,5.81-5.86,0-2.88-2.16-4.8-4.99-4.8Z"/>
      <path class="cls-1" d="M224.21,22.47c-2.93,0-5.76,1.78-5.76,5.62,0,2.69,1.63,4.85,4.94,4.85,1.44,0,3.26-.48,5.04-1.63h.1l-1.06,7.78c-2.21.86-4.66,1.25-6.82,1.25-7.39,0-11.47-5.42-11.47-11.71,0-8.26,6.05-13.78,13.63-13.78,2.78,0,5.86.72,7.54,1.63l-1.01,7.63-.1.05c-1.34-1.01-3.22-1.68-5.04-1.68Z"/>
      <path class="cls-1" d="M245.61,0l-3.02,24.58h.05l8.98-9.27h10.9l-11.76,11.38,9.98,13.15h-11.23l-7.44-10.08-.1.05-1.25,10.03h-9.02L236.59,0h9.02Z"/>
      <path class="cls-1" d="M260.59,29.33c0-9.17,6.14-14.5,14.16-14.5s13.49,5.33,12.34,14.69h-17.81c.29,2.4,1.49,4.27,4.08,4.27,1.63,0,3.07-.62,3.6-2.11h9.5c-2.06,5.81-6.48,8.64-13.73,8.64-7.82,0-12.15-4.66-12.15-10.99ZM269.95,24.05h8.74c.05-2.35-1.73-3.41-3.94-3.41-2.06,0-3.84,1.06-4.8,3.41Z"/>
      <path class="cls-1" d="M292.22,15.31h8.83l-.53,4.22h.05c2.35-3.22,6-4.7,8.93-4.7.48,0,.91.05,1.44.14l-1.1,8.59-.14.05c-.82-.48-2.21-.72-3.65-.72-3.26,0-5.95,1.92-6.43,5.71l-1.39,11.23h-9.02l3.02-24.53Z"/>
    </g>
  </g>
</svg>